<?xml version="1.0" encoding="UTF-8" standalone="no"?>
<!-- Created with Inkscape (http://www.inkscape.org/) -->
<svg id="svg2" xmlns:rdf="http://www.w3.org/1999/02/22-rdf-syntax-ns#" xmlns="http://www.w3.org/2000/svg" height="600" viewBox="0 0 599.99999 600.00001" width="600" version="1.1" xmlns:cc="http://creativecommons.org/ns#" xmlns:dc="http://purl.org/dc/elements/1.1/">
 <metadata id="metadata7">
  <rdf:RDF>
   <cc:Work rdf:about="">
    <dc:format>image/svg+xml</dc:format>
    <dc:type rdf:resource="http://purl.org/dc/dcmitype/StillImage"/>
    <dc:title/>
   </cc:Work>
  </rdf:RDF>
 </metadata>
 <g id="layer1" transform="translate(0 -452)">
  <g id="g181269" transform="matrix(61.1 0 0 73.4 5200 -3.56e4)">
   <g id="g91383" transform="matrix(1.027 0 0 1.025 1.883 -11.83)">
    <g stroke-width="0">
     <path id="path181192" d="m-78.32 497a1.108 0.4183 39.6 0 1 0.4425 0.9687 1.108 0.4183 39.6 0 1 -1.185 -0.5097 1.108 0.4183 39.6 0 1 -0.4425 -0.9687 1.108 0.4183 39.6 0 1 1.185 0.5097" transform="translate(.04161)"/>
     <path id="path181195" d="m-82.04 497.6a0.411 1.13 52.9 0 1 -1.19 0.425 0.411 1.13 52.9 0 1 0.565 -0.979 0.411 1.13 52.9 0 1 1.19 -0.425 0.411 1.13 52.9 0 1 -0.565 0.979" transform="translate(.04161)"/>
     <path id="path181197" d="m-77.75 494.3a0.417 1.11 49.6 0 1 -1.16 0.482 0.417 1.11 49.6 0 1 0.489 -1 0.417 1.11 49.6 0 1 1.16 -0.482 0.417 1.11 49.6 0 1 -0.488 1" transform="translate(.04161)"/>
     <path id="path181199" d="m-82.83 494.3a1.14 0.407 34.7 0 1 -0.559 -0.939 1.14 0.407 34.7 0 1 1.24 0.429 1.14 0.407 34.7 0 1 0.56 0.939 1.14 0.407 34.7 0 1 -1.24 -0.428" transform="translate(.04161)"/>
    </g>
    <path id="path179329" d="m-76.52 494.4c-0.0095 1.167-4.496 3.529-4.03 1.48" stroke="#000" stroke-linecap="round" stroke-width=".3040" fill="none"/>
    <path id="path179311" d="m-77.94 495.4a1.905 2.454 82.47 0 1 -2.485 2.007 1.905 2.454 82.47 0 1 -2.407 -1.82 1.905 2.454 82.47 0 1 2.474 -2.016 1.905 2.454 82.47 0 1 2.407 1.82" stroke-width="0"/>
    <g id="g179296" transform="matrix(.00866 0 0 .00701 -76.5 494)">
     <path id="path179266" stroke-width="0" transform="matrix(.988 .151 -.159 .987 0 0)" d="m-270-52.9c4.3 26.8-91.1 149-194 143-107-6.17-189-32.8-186-156 0.475-22.7 23.1-57.2 26.2-95.3 3.21-40.2-9.76-67.5 1.48-85.6 13.3-21.4 69.4 25.7 94.5 10.4 88.1-53.9 142-2.45 151-12.5 98-112 59.5 23.1 59.5 23.1 37.2 16.5 75.6 135 46.6 178"/>
     <g id="text91486" fill="#74735d" transform="matrix(.109 .0318 -.0318 .109 -455 -146)">
      <path id="path91493" stroke-width="0" fill="#74735d" d="m-892-172c1.81-43.9 17.2-81.7 46.1-114 27.1-27.9 55.1-42.9 84-44.9 39.8-1.99 73.2 7.97 100 29.9 25.3 21.9 34 152 52.1 198 19.9-47.8 54.6-178 78-198 27.1-21.9 59.6-31.9 97.6-29.9 32.5 1.99 62.3 17.9 89.4 47.8 28.9 31.9 43.4 68.8 43.4 111 1.81 45.8-9.94 83.7-35.2 114-220 217-542 154-555-114z"/>
     </g>
     <g id="g179262" fill="#efdcdc" transform="matrix(-.111 .0276 .0305 .12 -431 -147)">
      <path id="path179264" stroke-width="0" fill="#74735d" d="m-854-58.6c-23.5-29.9-36.1-67.8-37.9-114 1.81-43.9 17.2-81.7 46.1-114 27.1-27.9 55.1-42.9 84-44.9 39.8-1.99 73.2 7.97 100 29.9 25.3 21.9 52.1 148 70.2 193 19.9-47.8 36.5-174 59.9-193 27.1-21.9 59.6-31.9 97.6-29.9 32.5 1.99 62.3 17.9 89.4 47.8 28.9 31.9 43.4 68.8 43.4 111 1.81 45.8-9.94 83.7-35.2 114-215 142-435 96.2-518 0z"/>
     </g>
     <path id="path179272" d="m-416-55.2a36.8 10.7 0 0 1 -37.7 10.4 36.8 10.7 0 0 1 -35.9 -10.9 36.8 10.7 0 0 1 37.7 -10.4 36.8 10.7 0 0 1 35.9 10.9" transform="matrix(1 -.0114 .0258 1 0 0)" stroke-width="0" fill="#989794"/>
     <g id="g21" fill-rule="evenodd">
      <path id="path179281" style="color-rendering:auto;text-decoration-color:#000000;color:#000000;isolation:auto;mix-blend-mode:normal;shape-rendering:auto;solid-color:#000000;block-progression:tb;text-decoration-line:none;image-rendering:auto;white-space:normal;text-indent:0;text-transform:none;text-decoration-style:solid" fill="#fff" d="m-297-123a1.28 1.28 0 0 0 -0.218 0.0176l-119 18.3a1.285 1.285 0 1 0 0.39 2.54l119-18.3a1.28 1.28 0 0 0 -0.172 -2.55zm-7.08 26-110 2.81a1.285 1.285 0 1 0 0.0638 2.57l110-2.81a1.285 1.285 0 1 0 -0.0661 -2.57zm-109 17.6a1.281 1.281 0 0 0 -0.0749 2.56l103 13.3a1.286 1.286 0 1 0 0.33 -2.55l-103-13.9a1.28 1.28 0 0 0 -0.258 -0.011z"/>
      <path id="path179288" style="color-rendering:auto;text-decoration-color:#000000;color:#000000;isolation:auto;mix-blend-mode:normal;shape-rendering:auto;solid-color:#000000;block-progression:tb;text-decoration-line:none;image-rendering:auto;white-space:normal;text-indent:0;text-transform:none;text-decoration-style:solid" fill="#fff" d="m-588-66.2a1.14 1.14 0 0 0 0.193 -0.0156l105-16.2a1.14 1.14 0 1 0 -0.346 -2.25l-105 16.2a1.14 1.14 0 0 0 0.152 2.27zm6.28-23.1 97.9-2.49a1.14 1.14 0 1 0 -0.0566 -2.28l-97.9 2.49a1.14 1.14 0 1 0 0.0586 2.28zm96.7-15.6a1.14 1.14 0 0 0 0.0665 -2.27l-91-11.8a1.14 1.14 0 1 0 -0.293 2.26l91 11.8a1.14 1.14 0 0 0 0.229 0.01z"/>
      <g id="g25" stroke-width="0">
       <path id="path179290" fill="#342c2b" d="m-572-279-0.453-48.4 52.4 18.3z"/>
       <path id="path179292" fill="#342c2b" d="m-320-301 49.2-27.4-13.7 43.8z"/>
       <path id="path179294" fill="#232017" d="m-434-164c4.95 0 13.6 49.5 13.6 49.5s-15.7 51.9-35.9 49.5c-18.2-2.14-21-50.8-21-50.8l17.3-50.8z"/>
      </g>
     </g>
    </g>
   </g>
  </g>
 </g>
</svg>
